HIERARCHY
ROOT mixamorig:Hips
{
  OFFSET 0.000000 0.000000 0.000000
  CHANNELS 6 Xposition Yposition Zposition Xrotation Yrotation Zrotation
  JOINT mixamorig:Spine
  {
    OFFSET 0.888281 24.507439 -2.720481
    CHANNELS 3 Xrotation Yrotation Zrotation
    JOINT mixamorig:Spine2
    {
      OFFSET 0.888281 24.507439 -2.720481
      CHANNELS 3 Xrotation Yrotation Zrotation
      JOINT mixamorig:Neck
      {
        OFFSET 0.000000 6.350396 0.000000
        CHANNELS 3 Xrotation Yrotation Zrotation
        JOINT mixamorig:Head
        {
          OFFSET 0.000000 6.819653 0.000000
          CHANNELS 3 Xrotation Yrotation Zrotation
          End Site
          {
            OFFSET 0.000000 2.045896 0.000000
          }
        }
      }
      JOINT mixamorig:LeftShoulder
      {
        OFFSET 16.020412 2.520092 -5.380821
        CHANNELS 3 Xrotation Yrotation Zrotation
        JOINT mixamorig:LeftArm
        {
          OFFSET 7.174613 -21.018147 2.026162
          CHANNELS 3 Xrotation Yrotation Zrotation
          JOINT mixamorig:LeftForeArm
          {
            OFFSET 0.443742 -23.897695 0.124221
            CHANNELS 3 Xrotation Yrotation Zrotation
            JOINT mixamorig:LeftHand
            {
              OFFSET -1.618444 -3.672687 -1.347049
              CHANNELS 3 Xrotation Yrotation Zrotation
              End Site
              {
                OFFSET -0.485533 -1.101806 -0.404115
              }
            }
          }
        }
      }
      JOINT mixamorig:RightShoulder
      {
        OFFSET -16.020412 2.520092 5.380821
        CHANNELS 3 Xrotation Yrotation Zrotation
        JOINT mixamorig:RightArm
        {
          OFFSET -3.142406 -31.026639 -0.548359
          CHANNELS 3 Xrotation Yrotation Zrotation
          JOINT mixamorig:RightForeArm
          {
            OFFSET -5.241451 -19.867372 -8.702222
            CHANNELS 3 Xrotation Yrotation Zrotation
            JOINT mixamorig:RightHand
            {
              OFFSET 1.797950 -2.703908 -3.942030
              CHANNELS 3 Xrotation Yrotation Zrotation
              End Site
              {
                OFFSET 0.539385 -0.811172 -1.182609
              }
            }
          }
        }
      }
    }
  }
  JOINT mixamorig:LeftUpLeg
  {
    OFFSET 9.330592 -0.608966 -0.480705
    CHANNELS 3 Xrotation Yrotation Zrotation
    JOINT mixamorig:LeftLeg
    {
      OFFSET 1.429883 -38.712545 -8.162867
      CHANNELS 3 Xrotation Yrotation Zrotation
      JOINT mixamorig:LeftFoot
      {
        OFFSET 2.312643 -36.159945 16.923572
        CHANNELS 3 Xrotation Yrotation Zrotation
        JOINT mixamorig:LeftToeBase
        {
          OFFSET -4.896681 -6.214452 -6.817048
          CHANNELS 3 Xrotation Yrotation Zrotation
          End Site
          {
            OFFSET -1.469004 -1.864336 -2.045114
          }
        }
      }
    }
  }
  JOINT mixamorig:RightUpLeg
  {
    OFFSET -9.330592 0.608966 0.480705
    CHANNELS 3 Xrotation Yrotation Zrotation
    JOINT mixamorig:RightLeg
    {
      OFFSET 5.197952 -35.546916 1.847739
      CHANNELS 3 Xrotation Yrotation Zrotation
      JOINT mixamorig:RightFoot
      {
        OFFSET -1.175352 -43.737760 11.185155
        CHANNELS 3 Xrotation Yrotation Zrotation
        JOINT mixamorig:RightToeBase
        {
          OFFSET -5.934362 -2.936864 -9.381618
          CHANNELS 3 Xrotation Yrotation Zrotation
          End Site
          {
            OFFSET -1.780308 -0.881059 -2.814485
          }
        }
      }
    }
  }
}
MOTION
Frames: 19
Frame Time: 0.083333
0.125567 0.112204 0.086879 0.468512 -0.386829 -3.463712 0.000000 0.000000 0.000000 -6.046184 8.529678 4.270792 7.657993 -1.132850 7.122437 7.454640 -2.080482 7.030586 4.094669 -9.477274 -6.207009 4.854658 1.384823 11.062179 -0.171656 -1.782045 -4.972888 0.000000 0.000000 0.000000 7.098793 -8.474039 -6.872951 -1.800769 -2.033811 11.101168 0.505285 -0.707513 -2.004155 0.000000 0.000000 0.000000 -7.495798 -0.349172 3.646255 10.713857 -1.977524 -5.909698 3.323608 -27.207372 25.527534 0.000000 0.000000 0.000000 1.450781 0.359975 -7.831827 -3.214588 -2.174609 5.138587 7.468389 -9.171877 6.058205 0.000000 0.000000 0.000000
0.125844 0.113278 0.087593 0.475006 -0.369351 -3.299807 0.000000 0.000000 -0.000000 -6.043787 8.541456 4.107824 7.623251 -1.309380 7.034387 7.400224 -2.241361 6.917885 4.066648 -9.602526 -7.064311 4.232710 1.530269 11.277781 -0.358988 -1.624085 -3.814476 0.000000 0.000000 0.000000 7.078755 -8.477011 -7.140264 -2.100842 -2.169202 11.780927 0.732236 -1.206097 -2.086361 0.000000 0.000000 0.000000 -7.666043 -0.367241 3.525825 10.867956 -1.924915 -5.839918 3.581225 -27.121366 25.014206 0.000000 0.000000 0.000000 1.433151 0.338011 -7.885126 -3.266559 -2.206051 4.936156 7.328776 -8.924286 6.225918 0.000000 0.000000 0.000000
0.126197 0.114488 0.088346 0.433720 -0.338130 -3.011411 0.000000 0.000000 -0.000000 -6.037772 8.619902 3.833756 7.551331 -1.735299 6.949461 7.275604 -2.647421 6.774352 3.843932 -9.901640 -7.969727 3.848208 1.795238 11.265119 0.033668 -1.420715 -3.309701 0.000000 0.000000 0.000000 7.103040 -8.553713 -7.261047 -2.676526 -2.283807 12.411967 0.917447 -1.977785 -2.227812 0.000000 0.000000 0.000000 -7.716242 -0.375435 3.305144 10.773223 -1.828192 -5.637581 3.593359 -26.590174 24.238719 0.000000 0.000000 0.000000 1.411880 0.288313 -8.005502 -3.417307 -2.207615 4.816145 7.143976 -8.663715 6.351037 0.000000 0.000000 0.000000
0.126439 0.115916 0.089189 0.327542 -0.302640 -2.693181 -0.000000 0.000000 -0.000000 -6.032923 8.667918 3.537522 7.559984 -2.141735 6.996478 7.227049 -3.060871 6.765112 3.610265 -10.165061 -8.478952 3.641413 2.036143 10.597745 0.014098 -0.691564 -3.420287 0.000000 0.000000 0.000000 7.115609 -8.611811 -7.045230 -2.946858 -2.399595 12.688637 0.908229 -2.876267 -2.182507 0.000000 0.000000 0.000000 -7.766322 -0.393819 3.110578 10.697300 -1.658007 -5.314082 3.458257 -26.394242 23.578531 0.000000 0.000000 0.000000 1.282333 0.194522 -7.971616 -3.498404 -2.190508 4.379454 7.221699 -8.362438 6.507335 0.000000 0.000000 0.000000
0.126434 0.117380 0.090115 0.063952 -0.268339 -2.415027 -0.000000 0.000000 0.000000 -6.029763 8.695873 3.303700 7.753800 -2.399170 7.048819 7.380763 -3.349236 6.777241 3.637147 -10.373247 -8.994030 3.601465 2.248286 9.875576 -0.641087 0.057677 -3.122768 0.000000 0.000000 0.000000 7.228894 -8.657098 -6.696960 -2.779880 -2.534031 12.744520 0.795432 -3.278373 -2.229028 0.000000 0.000000 0.000000 -7.691621 -0.431110 3.101776 10.430505 -1.465741 -5.033658 3.445864 -26.468781 23.045334 0.000000 0.000000 0.000000 0.874209 -0.001575 -7.714728 -3.130203 -2.024194 3.622270 7.397837 -7.986534 6.718081 0.000000 0.000000 0.000000
0.126128 0.118748 0.090916 -0.398239 -0.219945 -2.056524 -0.000000 0.000000 0.000000 -6.027627 8.686542 3.017467 8.094861 -2.445112 7.038134 7.712639 -3.436846 6.751325 3.878786 -10.498939 -9.051512 3.327214 2.330417 8.552087 -0.859255 0.967213 -3.459737 0.000000 0.000000 0.000000 7.628098 -8.681681 -6.163917 -2.637068 -2.645013 12.553713 0.927257 -3.455499 -2.281318 0.000000 0.000000 0.000000 -7.722485 -0.498090 3.116551 9.744167 -1.438552 -5.098945 3.276824 -26.561403 23.820239 0.000000 0.000000 0.000000 0.070157 -0.355313 -7.486218 -2.664159 -1.718080 2.855721 7.978971 -7.260032 6.803520 0.000000 0.000000 0.000000
0.125667 0.120213 0.091572 -1.079293 -0.165736 -1.703440 0.000000 0.000000 0.000000 -6.026463 8.664436 2.767288 8.511403 -2.360386 6.971908 8.140828 -3.395611 6.687305 4.250177 -10.642382 -8.996859 2.963224 2.399412 7.161462 -0.855032 1.821571 -3.836157 0.000000 0.000000 0.000000 8.294461 -8.706786 -5.587068 -2.593676 -2.743662 12.313793 1.033191 -3.695994 -2.313622 0.000000 0.000000 0.000000 -7.804433 -0.592958 3.270770 9.120137 -1.440194 -5.330886 2.876039 -26.303415 24.791945 0.000000 0.000000 0.000000 -0.738460 -0.743025 -7.280421 -2.460012 -1.394849 2.301695 8.896272 -6.291499 6.670196 0.000000 0.000000 0.000000
0.125157 0.122138 0.092032 -1.419356 -0.123050 -1.415373 0.000000 0.000000 0.000000 -6.033994 8.412008 2.503427 8.792836 -2.198502 6.915241 8.445491 -3.260671 6.649347 4.666583 -10.395052 -8.921307 2.534544 2.303555 6.559487 -0.911600 2.186694 -3.818505 0.000000 0.000000 0.000000 9.027335 -8.506621 -5.020339 -2.780267 -2.880967 12.082821 1.066186 -3.719229 -2.394098 0.000000 0.000000 0.000000 -8.281848 -0.676531 3.379980 9.561543 -1.325521 -5.388464 3.143105 -26.677337 24.529878 0.000000 0.000000 0.000000 -1.611958 -1.024381 -6.821706 -1.970010 -1.089156 1.565872 9.635665 -6.144806 6.553463 0.000000 0.000000 0.000000
0.124653 0.124144 0.092453 -1.707052 -0.087471 -1.186349 0.000000 0.000000 0.000000 -6.039383 8.232603 2.296627 9.021657 -2.114208 6.913177 8.684013 -3.204421 6.656419 5.150402 -10.176321 -8.941488 2.071644 2.166452 6.362053 -0.995203 2.388347 -3.689054 0.000000 0.000000 0.000000 9.685764 -8.379485 -4.451644 -2.896827 -2.997368 11.775412 1.078496 -3.581091 -2.507288 0.000000 0.000000 0.000000 -8.512173 -0.747174 3.598329 9.850126 -1.169324 -5.415140 3.750301 -26.705062 23.385842 0.000000 0.000000 0.000000 -1.912615 -1.133882 -6.394912 -1.619818 -0.912776 1.028120 10.055425 -6.686773 6.452740 0.000000 0.000000 0.000000
0.124116 0.126144 0.092815 -1.863962 -0.057234 -0.980171 0.000000 0.000000 -0.000000 -6.041995 8.134507 2.102265 9.191071 -2.072476 6.950875 8.855601 -3.189439 6.698345 5.463134 -10.042772 -8.942142 1.755693 2.064011 6.487383 -1.106673 2.360702 -3.329281 0.000000 0.000000 0.000000 10.051900 -8.321390 -3.933953 -3.012136 -3.105476 11.573169 1.024301 -3.541770 -2.706437 0.000000 0.000000 0.000000 -8.654504 -0.804569 3.828859 9.909534 -1.077736 -5.568757 3.969825 -26.850704 22.970297 0.000000 0.000000 0.000000 -2.101748 -1.189296 -6.091728 -1.337226 -0.793534 0.642923 10.187393 -7.334881 6.467217 0.000000 0.000000 0.000000
0.123635 0.128185 0.093113 -1.920708 -0.027847 -0.763038 0.000000 0.000000 -0.000000 -6.040421 8.152650 1.897015 9.265305 -2.052396 7.010077 8.928685 -3.187744 6.760258 5.563459 -10.064147 -8.948202 1.609428 2.033223 6.685383 -1.139883 2.286112 -3.080854 0.000000 0.000000 0.000000 10.224760 -8.371461 -3.451521 -3.044065 -3.220794 11.419715 0.948039 -3.491150 -2.936083 0.000000 0.000000 0.000000 -8.798674 -0.836795 3.886414 9.869055 -1.017148 -5.647690 4.423458 -26.647700 22.253468 0.000000 0.000000 0.000000 -2.177999 -1.199077 -5.868723 -1.262260 -0.765225 0.274649 10.313372 -8.142986 6.607623 0.000000 0.000000 0.000000
0.123213 0.130353 0.093344 -2.016710 0.005710 -0.525054 0.000000 0.000000 -0.000000 -6.038728 8.178515 1.677916 9.315149 -2.092111 7.080842 8.968386 -3.244969 6.824136 5.675770 -10.105486 -8.935926 1.420112 2.003754 6.964662 -1.119965 2.207887 -2.880841 0.000000 0.000000 0.000000 10.423984 -8.428294 -3.054325 -3.195787 -3.296663 11.328023 1.016198 -3.583366 -3.094372 0.000000 0.000000 0.000000 -8.839411 -0.853910 3.808351 9.892066 -0.973195 -5.678371 4.376955 -25.817854 21.545632 0.000000 0.000000 0.000000 -2.153833 -1.217442 -5.887625 -1.127070 -0.734467 0.096172 10.229845 -8.609901 6.728619 0.000000 0.000000 0.000000
0.122709 0.132590 0.093534 -2.206324 0.040302 -0.307008 0.000000 0.000000 0.000000 -6.038349 8.178183 1.488749 9.427144 -2.251564 7.219591 9.047878 -3.441339 6.934816 5.814727 -10.138682 -8.822721 1.314625 1.999051 7.113679 -1.114564 2.185007 -2.838485 0.000000 0.000000 0.000000 10.578431 -8.450797 -2.788121 -3.270449 -3.362988 11.344216 1.248767 -3.748776 -3.200595 0.000000 0.000000 0.000000 -8.634364 -0.865025 3.688331 9.720890 -0.894856 -5.594511 3.971147 -24.729353 20.927623 0.000000 0.000000 0.000000 -1.944671 -1.226945 -5.983931 -1.119644 -0.723320 0.046991 10.121982 -8.865779 6.784037 0.000000 0.000000 0.000000
0.122105 0.134738 0.093687 -2.533037 0.078086 -0.106731 0.000000 0.000000 0.000000 -6.042857 8.052992 1.319989 9.628652 -2.522667 7.472513 9.191162 -3.780186 7.138956 6.042905 -10.058357 -8.575721 1.280344 2.007043 7.057447 -1.100652 2.229698 -2.967093 0.000000 0.000000 0.000000 10.834165 -8.350232 -2.587171 -3.436108 -3.406571 11.440585 1.627989 -3.977868 -3.329579 0.000000 0.000000 0.000000 -8.283923 -0.883183 3.587582 9.836768 -0.820132 -5.539254 3.887457 -24.426183 20.356861 0.000000 0.000000 0.000000 -1.537757 -1.236164 -6.143381 -1.064808 -0.718251 0.052227 10.057024 -8.984852 6.718345 0.000000 0.000000 0.000000
0.121484 0.136516 0.093854 -2.893821 0.113943 0.063419 0.000000 0.000000 -0.000000 -6.046994 7.943836 1.187916 9.824032 -2.740755 7.724324 9.333746 -4.065847 7.350092 6.329944 -9.984233 -8.334759 1.208463 1.998042 7.004340 -1.047941 2.272616 -3.114351 0.000000 0.000000 0.000000 11.104186 -8.268281 -2.337878 -3.620566 -3.421285 11.455938 1.974387 -4.151443 -3.505878 0.000000 0.000000 0.000000 -7.946076 -0.911371 3.564932 9.999892 -0.786556 -5.605597 3.910426 -24.455043 20.066025 0.000000 0.000000 0.000000 -1.159657 -1.259917 -6.278555 -0.862516 -0.703755 -0.013007 10.061309 -9.178889 6.660121 0.000000 0.000000 0.000000
0.120977 0.138057 0.093989 -3.005088 0.136159 0.195300 0.000000 0.000000 -0.000000 -6.045588 7.986214 1.079484 9.849824 -2.832062 7.906356 9.331762 -4.190492 7.516871 6.452445 -10.010318 -8.108376 1.206242 1.964899 6.903681 -1.074933 2.283650 -3.216086 0.000000 0.000000 0.000000 11.162058 -8.326444 -2.096277 -3.690574 -3.489641 11.504246 2.134882 -4.234773 -3.702200 0.000000 0.000000 0.000000 -7.845625 -0.935797 3.610756 9.999511 -0.796747 -5.782577 3.994201 -24.326672 19.898181 0.000000 0.000000 0.000000 -1.079751 -1.281412 -6.365540 -0.685201 -0.686217 -0.090942 9.866014 -9.086110 6.697946 0.000000 0.000000 0.000000
0.120528 0.139657 0.094074 -3.022834 0.151078 0.298583 0.000000 0.000000 -0.000000 -6.044040 8.032708 0.986597 9.846147 -2.788753 8.088323 9.322166 -4.176134 7.708778 6.431819 -10.060797 -7.949275 1.284187 1.972723 6.873722 -1.064458 2.254417 -3.302610 0.000000 0.000000 0.000000 11.143388 -8.382092 -1.891528 -3.695908 -3.596073 11.614118 2.183136 -4.231806 -3.952427 0.000000 0.000000 0.000000 -7.814629 -0.945444 3.584112 9.925245 -0.807019 -5.871980 3.998956 -24.067508 19.782259 0.000000 0.000000 0.000000 -1.002190 -1.276788 -6.407827 -0.434841 -0.674138 -0.181796 9.563038 -9.006663 6.698889 0.000000 0.000000 0.000000
0.120181 0.141221 0.094122 -3.043070 0.165309 0.396026 0.000000 0.000000 0.000000 -6.043599 8.050463 0.895502 9.871781 -2.725742 8.247261 9.346576 -4.142584 7.880260 6.411561 -10.089229 -7.835652 1.320606 1.982504 6.925847 -1.067571 2.230285 -3.368696 0.000000 0.000000 0.000000 11.127508 -8.408083 -1.698828 -3.738231 -3.695932 11.745050 2.077004 -4.285100 -4.220024 0.000000 0.000000 0.000000 -7.774239 -0.946836 3.488134 9.946914 -0.775824 -5.813114 4.165404 -24.033802 19.456817 0.000000 0.000000 0.000000 -0.830060 -1.257570 -6.482935 -0.033312 -0.640393 -0.191745 9.050212 -8.954008 6.636056 0.000000 0.000000 0.000000
0.119912 0.142553 0.094222 -3.027611 0.178172 0.493809 0.000000 0.000000 0.000000 -6.043882 8.049242 0.795886 9.867726 -2.669738 8.323080 9.346635 -4.098231 7.967201 6.353822 -10.099452 -7.736727 1.341176 1.993835 7.014523 -1.106221 2.215392 -3.417887 0.000000 0.000000 0.000000 11.122304 -8.415625 -1.511961 -3.826995 -3.758059 11.805721 1.948793 -4.284482 -4.472244 0.000000 0.000000 0.000000 -7.754793 -0.946464 3.389444 9.975767 -0.724589 -5.712480 4.352628 -23.832048 18.900849 0.000000 0.000000 0.000000 -0.559939 -1.212861 -6.575732 0.106491 -0.649629 -0.127101 8.615781 -8.897861 6.544706 0.000000 0.000000 0.000000
